<svg width="1024" height="1024" viewBox="0 0 680 680" xmlns="http://www.w3.org/2000/svg">
<defs>
  <clipPath id="icon-clip">
    <rect x="90" y="90" width="500" height="500" rx="112"/>
  </clipPath>
</defs>

<rect x="90" y="90" width="500" height="500" rx="112" fill="#1a1a2e"/>

<circle cx="340" cy="340" r="188" fill="none" stroke="#2d4a7a" stroke-width="28" clip-path="url(#icon-clip)"/>
<circle cx="340" cy="340" r="148" fill="#0f2044" stroke="#3a5f9e" stroke-width="6" clip-path="url(#icon-clip)"/>

<g fill="#4a7fc1" clip-path="url(#icon-clip)">
  <circle cx="340" cy="152" r="14"/>
  <circle cx="340" cy="528" r="14"/>
  <circle cx="152" cy="340" r="14"/>
  <circle cx="528" cy="340" r="14"/>
  <circle cx="207" cy="207" r="14"/>
  <circle cx="473" cy="207" r="14"/>
  <circle cx="207" cy="473" r="14"/>
  <circle cx="473" cy="473" r="14"/>
</g>
<g fill="#1a1a2e" clip-path="url(#icon-clip)">
  <circle cx="340" cy="152" r="6"/>
  <circle cx="340" cy="528" r="6"/>
  <circle cx="152" cy="340" r="6"/>
  <circle cx="528" cy="340" r="6"/>
  <circle cx="207" cy="207" r="6"/>
  <circle cx="473" cy="207" r="6"/>
  <circle cx="207" cy="473" r="6"/>
  <circle cx="473" cy="473" r="6"/>
</g>

<circle cx="340" cy="340" r="112" fill="#152035" stroke="#4a7fc1" stroke-width="3" clip-path="url(#icon-clip)"/>
<circle cx="340" cy="340" r="92" fill="none" stroke="#2d4a7a" stroke-width="2" clip-path="url(#icon-clip)"/>

<polygon points="316,298 316,382 400,340" fill="#4fc3f7" clip-path="url(#icon-clip)"/>
<polygon points="316,298 316,336 370,298" fill="#80d8ff" opacity="0.35" clip-path="url(#icon-clip)"/>

<rect x="420" y="328" width="58" height="24" rx="12" fill="#2d4a7a" stroke="#4a7fc1" stroke-width="2" clip-path="url(#icon-clip)"/>
<circle cx="455" cy="340" r="8" fill="#4a7fc1" clip-path="url(#icon-clip)"/>

<g stroke="#3a5f9e" stroke-width="2" clip-path="url(#icon-clip)">
  <line x1="340" y1="250" x2="340" y2="262"/>
  <line x1="340" y1="418" x2="340" y2="430"/>
  <line x1="248" y1="340" x2="260" y2="340"/>
  <line x1="416" y1="340" x2="428" y2="340"/>
  <line x1="275" y1="275" x2="283" y2="283"/>
  <line x1="397" y1="397" x2="405" y2="405"/>
  <line x1="275" y1="405" x2="283" y2="397"/>
  <line x1="397" y1="283" x2="405" y2="275"/>
</g>

<g fill="none" stroke="#2d4a7a" stroke-width="3" stroke-linecap="round" clip-path="url(#icon-clip)">
  <path d="M136 136 L136 172"/>
  <path d="M136 136 L172 136"/>
  <path d="M544 136 L544 172"/>
  <path d="M544 136 L508 136"/>
  <path d="M136 544 L136 508"/>
  <path d="M136 544 L172 544"/>
  <path d="M544 544 L544 508"/>
  <path d="M544 544 L508 544"/>
</g>
</svg>
